[img]http://img14.imageshack.us/img14/7600/conanb.jpg[/img]
[code]
Conan the Barbarian 2011 CAM XViD - IMAGiNE                          

Ripper ...........: IMAGiNE              IMDB Rating.......: 5.7/10                      
Video Codec.......: XViD                 Release Date......: 19/08/11
Audio Codec.......: MP3                  Theatre Date......: 19/08/11
Audio Bitrate.....: 128                  Runtime...........: 1h 39mn
Subtitles.........: ENGLISH              Language..........: ENGLISH
Resolution........: 720 x 304            IMDb URL..........: 
 
http://www.imdb.com/title/tt0816462/

DETAILS:

Video
ID                               : 0
Format                           : MPEG-4 Visual
Format profile                   : Advanced Simple@L5
Format settings, BVOP            : 2
Format settings, QPel            : No
Format settings, GMC             : No warppoints
Format settings, Matrix          : Default (MPEG)
Muxing mode                      : Packed bitstream
Codec ID                         : XVID
Codec ID/Hint                    : XviD
Duration                         : 1h 39mn
Bit rate                         : 1 837 Kbps
Width                            : 720 pixels
Height                           : 336 pixels
Display aspect ratio             : 2.2:1
Frame rate                       : 25.000 fps
Color space                      : YUV
Chroma subsampling               : 4:2:0
Bit depth                        : 8 bits
Scan type                        : Progressive
Compression mode                 : Lossy
Bits/(Pixel*Frame)               : 0.304
Stream size                      : 1.28 GiB (93%)
Writing library                  : XviD 64

Audio
ID                               : 1
Format                           : MPEG Audio
Format version                   : Version 1
Format profile                   : Layer 3
Mode                             : Joint stereo
Mode extension                   : MS Stereo
Codec ID                         : 55
Codec ID/Hint                    : MP3
Duration                         : 1h 39mn
Bit rate mode                    : Constant
Bit rate                         : 128 Kbps
Channel(s)                       : 2 channels
Sampling rate                    : 44.1 KHz
Compression mode                 : Lossy
Stream size                      : 91.1 MiB (6%)
Alignment                        : Split accross interleaves
Interleave, duration             : 40 ms (1.00 video frame)

Plot:
The tale of Conan the Cimmerian and his adventures across the continent of Hyboria on a 

quest to avenge the murder of his father and the slaughter of his village.

SOURCES:
VIDEO: ........ Konan.2011.D.CAMRip.RELiZLAB Thanks Mate 
AUDIO: ........ Thanks Mate 

NOTES:
IMAGiNE bringing you another release..........
Ok here we are with a somewhat decent cam of Conan Video wasnt the greatest, has some 

colors issues and so on So we made a script to sharpen and adjusted the colors a bit but 

not much could be done without messing up something else Audio is also decent cam audio, a 

bit loud at times but not too bad which was filtered synced and muxed to our encode 
[/code]
Screens:
[img]http://img708.imageshack.us/img708/4139/46720697.png[/img]
[img]http://img600.imageshack.us/img600/301/20442050.png[/img]
[img]http://img856.imageshack.us/img856/9485/32446705.png[/img]
[img]http://img35.imageshack.us/img35/5053/10965533.png[/img]